<?xml version="1.0" encoding="UTF-8" standalone="no"?>
<svg
   xmlns:dc="http://purl.org/dc/elements/1.1/"
   xmlns:cc="http://creativecommons.org/ns#"
   xmlns:rdf="http://www.w3.org/1999/02/22-rdf-syntax-ns#"
   xmlns:svg="http://www.w3.org/2000/svg"
   xmlns="http://www.w3.org/2000/svg"
   xmlns:sodipodi="http://sodipodi.sourceforge.net/DTD/sodipodi-0.dtd"
   xmlns:inkscape="http://www.inkscape.org/namespaces/inkscape"
   width="28"
   height="28"
   viewBox="0 0 28 28"
   version="1.1"
   id="svg3729"
   sodipodi:docname="baseline-android-24px.svg"
   inkscape:version="0.92.4 (5da689c313, 2019-01-14)">
  <metadata
     id="metadata3735">
    <rdf:RDF>
      <cc:Work
         rdf:about="">
        <dc:format>image/svg+xml</dc:format>
        <dc:type
           rdf:resource="http://purl.org/dc/dcmitype/StillImage" />
        <dc:title />
      </cc:Work>
    </rdf:RDF>
  </metadata>
  <defs
     id="defs3733" />
  <sodipodi:namedview
     pagecolor="#ffffff"
     bordercolor="#666666"
     borderopacity="1"
     objecttolerance="10"
     gridtolerance="10"
     guidetolerance="10"
     inkscape:pageopacity="0"
     inkscape:pageshadow="2"
     inkscape:window-width="2560"
     inkscape:window-height="1017"
     id="namedview3731"
     showgrid="false"
     inkscape:zoom="22.627417"
     inkscape:cx="20.6134"
     inkscape:cy="15.224666"
     inkscape:window-x="1912"
     inkscape:window-y="-8"
     inkscape:window-maximized="1"
     inkscape:current-layer="svg3729" />
  <path
     d="M 0,4 H 24 V 28 H 0 Z"
     id="path3725"
     inkscape:connector-curvature="0"
     style="fill:none" />
  <path
     id="path3727"
     d="m 8,10.962891 v 10 c 0,0.55 0.45,1 1,1 h 1 v 3.5 c 0,0.83 0.67,1.5 1.5,1.5 0.83,0 1.5,-0.67 1.5,-1.5 v -3.5 h 2 v 3.5 c 0,0.83 0.67,1.5 1.5,1.5 0.83,0 1.5,-0.67 1.5,-1.5 v -3.5 h 1 c 0.55,0 1,-0.45 1,-1 v -10 z" />
  <path
     inkscape:connector-curvature="0"
     d="M 19.144018,4.476583 8.8502251,0.95620529 8.3883241,2.1296649 17.69233,5.2794756 H 9.3781118 c -0.7258443,0 -1.319717,0.55585 -1.319717,1.235222 v 2.47044 c 0,0.679371 0.5938727,1.2352204 1.319717,1.2352204 h 9.2380202 c 0.725844,0 1.319716,-0.5558494 1.319716,-1.2352204 v -3.396856 c 0,-0.494088 -0.32993,-0.9881756 -0.79183,-1.1116986 z m -8.44619,3.8909436 H 9.3781118 v -1.23522 h 1.3197162 z m 7.918304,0 h -6.598587 v -1.23522 h 6.598587 z"
     id="path3749"
     style="stroke-width:0.63838488" />
  <path
     style="fill:none;stroke:#000000;stroke-width:1px;stroke-linecap:butt;stroke-linejoin:miter;stroke-opacity:1"
     d="m 6.6041104,13.425163 c -3.4021175,3.482168 -3.2420178,7.364585 -3.2420178,7.364585 l 2.241395,-2.52157 z"
     id="path97"
     inkscape:connector-curvature="0" />
  <path
     style="fill:none;stroke:#000000;stroke-width:1px;stroke-linecap:butt;stroke-linejoin:miter;stroke-opacity:1"
     d="m 21.373989,13.42565 c 3.402118,3.482168 3.242018,7.364585 3.242018,7.364585 l -2.241395,-2.52157 z"
     id="path97-8"
     inkscape:connector-curvature="0" />
</svg>
